<svg width="393" height="393" viewBox="0 0 393 393" fill="none" xmlns="http://www.w3.org/2000/svg">
<g clip-path="url(#clip0_1_3447)">
<ellipse cx="194.767" cy="372.541" rx="95.4227" ry="19.6074" fill="url(#paint0_linear_1_3447)" fill-opacity="0.4"/>
<path d="M232.388 295.418C257.69 308.484 300.288 338.82 268.27 355.646C267.81 363.294 259.99 377.251 232.388 371.898C226.428 376.911 211.407 383.778 196.074 374.47C180.741 383.778 165.721 376.911 159.76 371.898C132.159 377.251 124.338 363.294 123.877 355.646C91.86 338.82 134.459 308.483 159.76 295.418C164.172 299.93 169.519 305.691 174.947 312.05C180.334 303.601 189.541 298.032 199.996 298.032C208.337 298.032 215.884 301.578 221.331 307.303C225.3 302.828 229.104 298.777 232.388 295.418Z" fill="#40488E"/>
<path d="M232.388 295.418L234.787 290.772L231.353 288.999L228.65 291.762L232.388 295.418ZM268.27 355.646L265.838 351.017L263.228 352.389L263.051 355.332L268.27 355.646ZM232.388 371.898L233.384 366.765L230.933 366.289L229.023 367.896L232.388 371.898ZM196.074 374.47L198.787 370L196.074 368.353L193.36 370L196.074 374.47ZM159.76 371.898L163.126 367.896L161.215 366.289L158.765 366.765L159.76 371.898ZM123.877 355.646L129.097 355.332L128.92 352.389L126.31 351.017L123.877 355.646ZM159.76 295.418L163.499 291.762L160.796 288.999L157.361 290.772L159.76 295.418ZM174.947 312.05L170.97 315.445L175.557 320.819L179.356 314.861L174.947 312.05ZM199.996 298.032L199.996 292.804H199.996V298.032ZM221.331 307.303L217.543 310.907L221.466 315.031L225.242 310.772L221.331 307.303ZM232.388 295.418L229.989 300.064C242.448 306.497 258.717 316.981 267.873 327.546C272.522 332.911 274.574 337.43 274.502 340.865C274.442 343.706 272.849 347.333 265.838 351.017L268.27 355.646L270.702 360.274C279.7 355.546 284.789 349.071 284.957 341.084C285.112 333.69 280.936 326.653 275.775 320.698C265.311 308.622 247.631 297.404 234.787 290.772L232.388 295.418ZM268.27 355.646L263.051 355.332C262.907 357.729 261.536 361.579 257.534 364.346C253.583 367.077 246.294 369.269 233.384 366.765L232.388 371.898L231.393 377.031C246.084 379.88 256.506 377.77 263.48 372.948C270.403 368.163 273.173 361.211 273.489 355.96L268.27 355.646ZM232.388 371.898L229.023 367.896C224.04 372.087 211.491 377.713 198.787 370L196.074 374.47L193.36 378.939C211.323 389.844 228.816 381.735 235.754 375.899L232.388 371.898ZM196.074 374.47L193.36 370C180.657 377.712 168.108 372.087 163.126 367.896L159.76 371.898L156.395 375.899C163.333 381.735 180.825 389.844 198.787 378.939L196.074 374.47ZM159.76 371.898L158.765 366.765C145.854 369.269 138.565 367.077 134.614 364.346C130.611 361.579 129.241 357.729 129.097 355.332L123.877 355.646L118.658 355.96C118.974 361.211 121.744 368.163 128.668 372.948C135.643 377.77 146.064 379.88 160.756 377.031L159.76 371.898ZM123.877 355.646L126.31 351.017C119.299 347.333 117.706 343.706 117.646 340.865C117.574 337.43 119.626 332.911 124.276 327.546C133.431 316.981 149.701 306.497 162.159 300.064L159.76 295.418L157.361 290.772C144.518 297.404 126.838 308.621 116.373 320.698C111.212 326.653 107.036 333.69 107.191 341.084C107.359 349.071 112.448 355.546 121.445 360.274L123.877 355.646ZM159.76 295.418L156.022 299.074C160.36 303.51 165.626 309.184 170.97 315.445L174.947 312.05L178.924 308.655C173.411 302.198 167.984 296.35 163.499 291.762L159.76 295.418ZM174.947 312.05L179.356 314.861C183.859 307.797 191.466 303.261 199.996 303.261V298.032V292.804C187.616 292.804 176.808 299.405 170.538 309.239L174.947 312.05ZM199.996 298.032L199.996 303.261C206.812 303.261 213.017 306.15 217.543 310.907L221.331 307.303L225.119 303.699C218.751 297.007 209.862 292.804 199.996 292.804L199.996 298.032ZM221.331 307.303L225.242 310.772C229.152 306.364 232.898 302.375 236.126 299.074L232.388 295.418L228.65 291.762C225.309 295.179 221.447 299.292 217.419 303.834L221.331 307.303Z" fill="#252565"/>
<path d="M196.515 10.4573C196.532 10.4573 196.546 10.471 196.546 10.4875C196.546 10.5034 196.559 10.5161 196.575 10.5168C225.069 11.8804 241.737 36.7772 247.597 59.303C248.307 62.0295 251.434 63.467 253.969 62.2385C312.966 33.6527 321.108 73.903 308.963 108.281C341.613 128.329 363.39 164.364 363.39 205.487C363.39 268.438 312.358 319.471 249.406 319.471H142.742C79.7902 319.471 28.7578 268.438 28.7576 205.487C28.7576 164.88 49.9919 129.233 81.9617 109.043C69.4253 74.5021 77.2516 33.4403 136.684 62.2375C139.22 63.466 142.347 62.0278 143.056 59.301C148.917 36.7751 165.585 11.879 194.08 10.5159C194.095 10.5151 194.108 10.5029 194.108 10.4875C194.108 10.4715 194.121 10.4582 194.137 10.4583C194.524 10.4585 194.908 10.4642 195.29 10.4729C195.696 10.4631 196.104 10.4575 196.515 10.4573Z" fill="url(#paint1_linear_1_3447)"/>
<path d="M196.515 10.4573L196.512 5.22864H196.512L196.515 10.4573ZM196.546 10.4875H191.317V10.512L191.317 10.5364L196.546 10.4875ZM196.575 10.5168L196.825 5.29418L196.825 5.29418L196.575 10.5168ZM247.597 59.303L242.537 60.6195L242.537 60.6201L247.597 59.303ZM253.969 62.2385L256.249 66.944L256.249 66.9439L253.969 62.2385ZM308.963 108.281L304.033 106.54L302.625 110.525L306.227 112.737L308.963 108.281ZM363.39 205.487L368.619 205.487V205.487H363.39ZM142.742 319.471V324.7V319.471ZM28.7576 205.487H23.5289V205.487L28.7576 205.487ZM81.9617 109.043L84.7536 113.464L88.3127 111.216L86.8766 107.259L81.9617 109.043ZM136.684 62.2375L134.404 66.9429L134.405 66.943L136.684 62.2375ZM143.056 59.301L137.996 57.9845L137.996 57.9845L143.056 59.301ZM194.08 10.5159L193.83 5.2932L193.83 5.2932L194.08 10.5159ZM194.108 10.4875L199.337 10.5422L199.337 10.5149V10.4875H194.108ZM194.137 10.4583L194.141 5.22961H194.141L194.137 10.4583ZM195.29 10.4729L195.171 15.7002L195.294 15.703L195.416 15.7L195.29 10.4729ZM196.515 10.4573L196.519 15.6859C193.642 15.6877 191.317 13.3557 191.317 10.4875H196.546H201.774C201.774 7.58631 199.422 5.22678 196.512 5.22864L196.515 10.4573ZM196.546 10.4875L191.317 10.5364C191.346 13.5726 193.796 15.6185 196.325 15.7395L196.575 10.5168L196.825 5.29418C199.322 5.41366 201.746 7.4343 201.774 10.4387L196.546 10.4875ZM196.575 10.5168L196.325 15.7395C221.403 16.9396 236.905 38.9711 242.537 60.6195L247.597 59.303L252.658 57.9864C246.569 34.5833 228.735 6.82123 196.825 5.29418L196.575 10.5168ZM247.597 59.303L242.537 60.6201C244.081 66.5491 250.756 69.6053 256.249 66.944L253.969 62.2385L251.69 57.5331C251.944 57.4099 252.172 57.4523 252.285 57.5044C252.399 57.5567 252.585 57.7059 252.657 57.9859L247.597 59.303ZM253.969 62.2385L256.249 66.9439C270.614 59.9838 281.304 57.5126 288.988 57.7644C296.439 58.0087 301.033 60.784 303.924 64.7358C306.978 68.9089 308.583 75.0273 308.562 82.5494C308.541 90.0096 306.914 98.3827 304.033 106.54L308.963 108.281L313.893 110.023C317.084 100.991 318.994 91.4409 319.019 82.5786C319.044 73.778 317.203 65.1745 312.364 58.561C307.363 51.7262 299.619 47.65 289.331 47.3128C279.275 46.9832 266.823 50.2003 251.69 57.5331L253.969 62.2385ZM308.963 108.281L306.227 112.737C337.393 131.873 358.162 166.257 358.162 205.487H363.39H368.619C368.619 162.472 345.833 124.784 311.698 103.826L308.963 108.281ZM363.39 205.487L358.162 205.487C358.162 265.551 309.47 314.242 249.406 314.242V319.471V324.7C315.245 324.7 368.619 271.326 368.619 205.487L363.39 205.487ZM249.406 319.471V314.242H142.742V319.471V324.7H249.406V319.471ZM142.742 319.471V314.242C82.678 314.242 33.9864 265.551 33.9862 205.487L28.7576 205.487L23.5289 205.487C23.5291 271.326 76.9025 324.7 142.742 324.7V319.471ZM28.7576 205.487H33.9862C33.9862 166.748 54.2368 132.737 84.7536 113.464L81.9617 109.043L79.1697 104.622C45.7471 125.73 23.5289 163.011 23.5289 205.487H28.7576ZM81.9617 109.043L86.8766 107.259C83.9019 99.0631 82.186 90.6056 82.0939 83.0445C82.001 75.4188 83.5583 69.1855 86.5942 64.9207C89.4658 60.8868 94.0461 58.054 101.497 57.7696C109.192 57.4758 119.932 59.9306 134.404 66.9429L136.684 62.2375L138.964 57.5322C123.72 50.1458 111.195 46.9344 101.098 47.3199C90.7585 47.7147 83.0221 51.9067 78.075 58.8562C73.2923 65.5748 71.5291 74.2837 71.6373 83.1718C71.7464 92.1246 73.7533 101.753 77.0467 110.827L81.9617 109.043ZM136.684 62.2375L134.405 66.943C139.899 69.6048 146.574 66.5463 148.117 60.6176L143.056 59.301L137.996 57.9845C138.069 57.7047 138.254 57.5557 138.368 57.5033C138.481 57.4513 138.709 57.4087 138.964 57.5321L136.684 62.2375ZM143.056 59.301L148.117 60.6176C153.749 38.9691 169.251 16.9382 194.33 15.7385L194.08 10.5159L193.83 5.2932C161.92 6.81971 144.085 34.581 137.996 57.9845L143.056 59.301ZM194.08 10.5159L194.33 15.7385C196.864 15.6173 199.305 13.5677 199.337 10.5422L194.108 10.4875L188.88 10.4329C188.911 7.43804 191.326 5.41295 193.83 5.2932L194.08 10.5159ZM194.108 10.4875H199.337C199.337 13.3559 197.012 15.6889 194.134 15.6869L194.137 10.4583L194.141 5.22961C191.231 5.22754 188.88 7.58722 188.88 10.4875H194.108ZM194.137 10.4583L194.134 15.6869C194.472 15.6871 194.816 15.6921 195.171 15.7002L195.29 10.4729L195.408 5.2456C195 5.23633 194.576 5.22993 194.141 5.22961L194.137 10.4583ZM195.29 10.4729L195.416 15.7C195.785 15.6911 196.153 15.6862 196.519 15.6859L196.515 10.4573L196.512 5.22864C196.056 5.22893 195.607 5.23509 195.164 5.24578L195.29 10.4729Z" fill="#252565"/>
<path d="M162.088 219.603C175.56 210.506 202.253 201.52 230.06 219.603" stroke="#FF6767" stroke-width="13.0716" stroke-linecap="round" stroke-linejoin="round"/>
<circle cx="132.797" cy="236.324" r="7.3201" fill="white"/>
<circle cx="118.68" cy="220.638" r="63.0051" fill="white" stroke="#FF6767" stroke-width="13.0716"/>
<ellipse cx="124.954" cy="221.684" rx="43.9206" ry="42.8749" fill="url(#paint2_radial_1_3447)"/>
<circle cx="118.679" cy="220.638" r="56.4693" transform="rotate(8 118.679 220.638)" fill="url(#paint3_linear_1_3447)" fill-opacity="0.32"/>
<rect x="127.045" y="195.54" width="29.2804" height="33.4633" rx="14.6402" fill="white"/>
<circle cx="272.924" cy="220.638" r="63.0051" fill="white" stroke="#FF6767" stroke-width="13.0716"/>
<ellipse cx="264.559" cy="221.684" rx="43.9206" ry="42.8749" fill="url(#paint4_radial_1_3447)"/>
<rect x="234.243" y="195.54" width="29.2804" height="33.4633" rx="14.6402" fill="white"/>
<circle cx="272.924" cy="220.638" r="56.4693" transform="rotate(8 272.924 220.638)" fill="url(#paint5_linear_1_3447)" fill-opacity="0.32"/>
<ellipse cx="197.12" cy="264.569" rx="21.9603" ry="13.5945" fill="#FF5858" stroke="#252565" stroke-width="7.84296"/>
<path d="M148.793 97.1334C146.493 98.4485 145.076 102.574 144.065 104.756C142.662 107.783 141.451 110.822 141.22 114.172C140.906 118.724 142.202 123.712 144.536 127.623C149.137 135.336 157.289 139.111 165.82 140.312C179.151 142.189 194.906 141.616 205.567 132.241C209.275 128.981 211.873 122.657 211.101 117.714C210.029 110.851 205.265 105.531 198.016 106.437C191.764 107.219 189.033 113.649 191.228 119.238C192.317 122.012 196.124 125.915 198.666 127.399C203.158 130.021 208.586 131.356 213.633 132.241C223.578 133.985 236.697 134.85 245.358 128.61C256.033 120.919 256.961 103.028 244.372 96.7299" stroke="#252565" stroke-width="7.84296" stroke-linecap="round"/>
<path d="M180.388 338.554L187.373 345.539C191.456 349.623 198.078 349.623 202.161 345.539L210.453 337.247" stroke="#252565" stroke-width="7.84296" stroke-linecap="round" stroke-linejoin="round"/>
</g>
<defs>
<linearGradient id="paint0_linear_1_3447" x1="196.074" y1="282.347" x2="220.91" y2="440.513" gradientUnits="userSpaceOnUse">
<stop offset="0.1" stop-color="#000419"/>
<stop offset="1" stop-color="#585858" stop-opacity="0.03"/>
</linearGradient>
<linearGradient id="paint1_linear_1_3447" x1="196.074" y1="92.0244" x2="196.074" y2="319.994" gradientUnits="userSpaceOnUse">
<stop stop-color="#4B5794"/>
<stop offset="1" stop-color="#3E458E"/>
</linearGradient>
<radialGradient id="paint2_radial_1_3447" cx="0" cy="0" r="1" gradientUnits="userSpaceOnUse" gradientTransform="translate(124.954 221.684) rotate(90) scale(42.8749 43.9206)">
<stop stop-color="#190316"/>
<stop offset="0.61" stop-color="#1C0853"/>
<stop offset="1" stop-color="#441F6C"/>
</radialGradient>
<linearGradient id="paint3_linear_1_3447" x1="93.2727" y1="310.284" x2="149.451" y2="155.868" gradientUnits="userSpaceOnUse">
<stop stop-color="#FF6868"/>
<stop offset="1" stop-color="white" stop-opacity="0.09"/>
</linearGradient>
<radialGradient id="paint4_radial_1_3447" cx="0" cy="0" r="1" gradientUnits="userSpaceOnUse" gradientTransform="translate(264.559 221.684) rotate(90) scale(42.8749 43.9206)">
<stop stop-color="#190316"/>
<stop offset="0.61" stop-color="#1C0853"/>
<stop offset="1" stop-color="#441F6C"/>
</radialGradient>
<linearGradient id="paint5_linear_1_3447" x1="330.201" y1="288.103" x2="247.49" y2="159.807" gradientUnits="userSpaceOnUse">
<stop stop-color="#FF6868"/>
<stop offset="1" stop-color="white" stop-opacity="0.13"/>
</linearGradient>
<clipPath id="clip0_1_3447">
<rect width="392.148" height="392.148" fill="white"/>
</clipPath>
</defs>
</svg>
